<?xml version="1.0" encoding="UTF-8" standalone="no"?>
<!DOCTYPE svg PUBLIC "-//W3C//DTD SVG 1.1//EN"
 "http://www.w3.org/Graphics/SVG/1.1/DTD/svg11.dtd">
<!-- Generated by graphviz version 2.43.0 (0)
 -->
<!-- Title: G Pages: 1 -->
<svg width="690pt" height="874pt"
 viewBox="0.00 0.00 689.74 874.00" xmlns="http://www.w3.org/2000/svg" xmlns:xlink="http://www.w3.org/1999/xlink">
<g id="graph0" class="graph" transform="scale(1 1) rotate(0) translate(4 870)">
<title>G</title>
<polygon fill="white" stroke="transparent" points="-4,4 -4,-870 685.74,-870 685.74,4 -4,4"/>
<!-- n1 -->
<g id="node1" class="node">
<title>n1</title>
<g id="a_node1"><a xlink:href="https://neuroquery.github.io/nqdc/PubMed_Central" xlink:title="PubMed_Central">
<ellipse fill="#fffc87" stroke="#808080" cx="250.74" cy="-848" rx="88.28" ry="18"/>
<text text-anchor="middle" x="250.74" y="-844.3" font-family="Times,serif" font-size="14.00">PubMed_Central</text>
</a>
</g>
</g>
<!-- n2 -->
<g id="node2" class="node">
<title>n2</title>
<g id="a_node2"><a xlink:href="https://neuroquery.github.io/nqdc/nqdc_outputs" xlink:title="nqdc_outputs">
<ellipse fill="#fffc87" stroke="#808080" cx="323.74" cy="-682" rx="73.39" ry="18"/>
<text text-anchor="middle" x="323.74" y="-678.3" font-family="Times,serif" font-size="14.00">nqdc_outputs</text>
</a>
</g>
</g>
<!-- n13 -->
<g id="node13" class="node">
<title>n13</title>
<g id="a_node13"><a xlink:href="https://neuroquery.github.io/nqdc/nqdc_run" xlink:title="nqdc_run">
<polygon fill="#9fb1fc" stroke="#0000ff" points="365.24,-783 282.24,-783 282.24,-747 365.24,-747 365.24,-783"/>
<text text-anchor="middle" x="323.74" y="-761.3" font-family="Times,serif" font-size="14.00">nqdc_run</text>
</a>
</g>
</g>
<!-- n2&#45;&gt;n13 -->
<g id="edge13" class="edge">
<title>n2&#45;&gt;n13</title>
<path fill="none" stroke="darkgreen" d="M323.74,-700.18C323.74,-710.81 323.74,-724.69 323.74,-736.8"/>
<polygon fill="darkgreen" stroke="darkgreen" points="320.24,-736.85 323.74,-746.85 327.24,-736.85 320.24,-736.85"/>
<text text-anchor="middle" x="367.74" y="-721" font-family="Times,serif" font-size="10.00" fill="darkgreen">wasGeneratedBy</text>
</g>
<!-- n3 -->
<g id="node3" class="node">
<title>n3</title>
<g id="a_node3"><a xlink:href="https://neuroquery.github.io/nqdc/labels" xlink:title="labels">
<ellipse fill="#fffc87" stroke="#808080" cx="419.74" cy="-516" rx="38.19" ry="18"/>
<text text-anchor="middle" x="419.74" y="-512.3" font-family="Times,serif" font-size="14.00">labels</text>
</a>
</g>
</g>
<!-- n14 -->
<g id="node14" class="node">
<title>n14</title>
<g id="a_node14"><a xlink:href="https://neuroquery.github.io/nqdc/paper_exploration" xlink:title="paper_exploration">
<polygon fill="#9fb1fc" stroke="#0000ff" points="420.74,-617 274.74,-617 274.74,-581 420.74,-581 420.74,-617"/>
<text text-anchor="middle" x="347.74" y="-595.3" font-family="Times,serif" font-size="14.00">paper_exploration</text>
</a>
</g>
</g>
<!-- n3&#45;&gt;n14 -->
<g id="edge15" class="edge">
<title>n3&#45;&gt;n14</title>
<path fill="none" stroke="darkgreen" d="M398.73,-531.31C390.98,-537.18 382.45,-544.39 375.74,-552 370.47,-557.98 365.6,-565.07 361.46,-571.88"/>
<polygon fill="darkgreen" stroke="darkgreen" points="358.24,-570.45 356.28,-580.86 364.31,-573.94 358.24,-570.45"/>
<text text-anchor="middle" x="419.74" y="-555" font-family="Times,serif" font-size="10.00" fill="darkgreen">wasGeneratedBy</text>
</g>
<!-- n4 -->
<g id="node4" class="node">
<title>n4</title>
<g id="a_node4"><a xlink:href="https://neuroquery.github.io/nqdc/labelled_papers_pilot" xlink:title="labelled_papers_pilot">
<ellipse fill="#fffc87" stroke="#808080" cx="254.74" cy="-516" rx="108.58" ry="18"/>
<text text-anchor="middle" x="254.74" y="-512.3" font-family="Times,serif" font-size="14.00">labelled_papers_pilot</text>
</a>
</g>
</g>
<!-- n4&#45;&gt;n14 -->
<g id="edge19" class="edge">
<title>n4&#45;&gt;n14</title>
<path fill="none" stroke="darkgreen" d="M259.08,-534.43C262.16,-543.83 267.13,-555.1 274.74,-563 279.39,-567.83 284.85,-572.07 290.64,-575.78"/>
<polygon fill="darkgreen" stroke="darkgreen" points="288.92,-578.83 299.32,-580.84 292.44,-572.78 288.92,-578.83"/>
<text text-anchor="middle" x="318.74" y="-555" font-family="Times,serif" font-size="10.00" fill="darkgreen">wasGeneratedBy</text>
</g>
<!-- n5 -->
<g id="node5" class="node">
<title>n5</title>
<g id="a_node5"><a xlink:href="https://neuroquery.github.io/nqdc/labelled_papers_1" xlink:title="labelled_papers_1">
<ellipse fill="#fffc87" stroke="#808080" cx="567.74" cy="-350" rx="93.68" ry="18"/>
<text text-anchor="middle" x="567.74" y="-346.3" font-family="Times,serif" font-size="14.00">labelled_papers_1</text>
</a>
</g>
</g>
<!-- n16 -->
<g id="node16" class="node">
<title>n16</title>
<g id="a_node16"><a xlink:href="https://neuroquery.github.io/nqdc/labelling" xlink:title="labelling">
<polygon fill="#9fb1fc" stroke="#0000ff" points="548.74,-451 470.74,-451 470.74,-415 548.74,-415 548.74,-451"/>
<text text-anchor="middle" x="509.74" y="-429.3" font-family="Times,serif" font-size="14.00">labelling</text>
</a>
</g>
</g>
<!-- n5&#45;&gt;n16 -->
<g id="edge16" class="edge">
<title>n5&#45;&gt;n16</title>
<path fill="none" stroke="darkgreen" d="M555.44,-368.18C547.44,-379.35 536.87,-394.1 527.92,-406.62"/>
<polygon fill="darkgreen" stroke="darkgreen" points="525,-404.68 522.02,-414.85 530.69,-408.75 525,-404.68"/>
<text text-anchor="middle" x="585.74" y="-389" font-family="Times,serif" font-size="10.00" fill="darkgreen">wasGeneratedBy</text>
</g>
<!-- n6 -->
<g id="node6" class="node">
<title>n6</title>
<g id="a_node6"><a xlink:href="https://neuroquery.github.io/nqdc/extractor_scores" xlink:title="extractor_scores">
<ellipse fill="#fffc87" stroke="#808080" cx="593.74" cy="-184" rx="87.99" ry="18"/>
<text text-anchor="middle" x="593.74" y="-180.3" font-family="Times,serif" font-size="14.00">extractor_scores</text>
</a>
</g>
</g>
<!-- n17 -->
<g id="node17" class="node">
<title>n17</title>
<g id="a_node17"><a xlink:href="https://neuroquery.github.io/nqdc/extractor_evaluation" xlink:title="extractor_evaluation">
<polygon fill="#9fb1fc" stroke="#0000ff" points="675.74,-285 511.74,-285 511.74,-249 675.74,-249 675.74,-285"/>
<text text-anchor="middle" x="593.74" y="-263.3" font-family="Times,serif" font-size="14.00">extractor_evaluation</text>
</a>
</g>
</g>
<!-- n6&#45;&gt;n17 -->
<g id="edge3" class="edge">
<title>n6&#45;&gt;n17</title>
<path fill="none" stroke="darkgreen" d="M593.74,-202.18C593.74,-212.81 593.74,-226.69 593.74,-238.8"/>
<polygon fill="darkgreen" stroke="darkgreen" points="590.24,-238.85 593.74,-248.85 597.24,-238.85 590.24,-238.85"/>
<text text-anchor="middle" x="637.74" y="-223" font-family="Times,serif" font-size="10.00" fill="darkgreen">wasGeneratedBy</text>
</g>
<!-- n7 -->
<g id="node7" class="node">
<title>n7</title>
<g id="a_node7"><a xlink:href="https://neuroquery.github.io/nqdc/extracted_information" xlink:title="extracted_information">
<ellipse fill="#fffc87" stroke="#808080" cx="113.74" cy="-184" rx="113.98" ry="18"/>
<text text-anchor="middle" x="113.74" y="-180.3" font-family="Times,serif" font-size="14.00">extracted_information</text>
</a>
</g>
</g>
<!-- n18 -->
<g id="node18" class="node">
<title>n18</title>
<g id="a_node18"><a xlink:href="https://neuroquery.github.io/nqdc/full_dataset_extraction" xlink:title="full_dataset_extraction">
<polygon fill="#9fb1fc" stroke="#0000ff" points="203.24,-285 24.24,-285 24.24,-249 203.24,-249 203.24,-285"/>
<text text-anchor="middle" x="113.74" y="-263.3" font-family="Times,serif" font-size="14.00">full_dataset_extraction</text>
</a>
</g>
</g>
<!-- n7&#45;&gt;n18 -->
<g id="edge17" class="edge">
<title>n7&#45;&gt;n18</title>
<path fill="none" stroke="darkgreen" d="M113.74,-202.18C113.74,-212.81 113.74,-226.69 113.74,-238.8"/>
<polygon fill="darkgreen" stroke="darkgreen" points="110.24,-238.85 113.74,-248.85 117.24,-238.85 110.24,-238.85"/>
<text text-anchor="middle" x="157.74" y="-223" font-family="Times,serif" font-size="10.00" fill="darkgreen">wasGeneratedBy</text>
</g>
<!-- n8 -->
<g id="node8" class="node">
<title>n8</title>
<g id="a_node8"><a xlink:href="https://neuroquery.github.io/nqdc/report" xlink:title="report">
<ellipse fill="#fffc87" stroke="#808080" cx="113.74" cy="-18" rx="40.09" ry="18"/>
<text text-anchor="middle" x="113.74" y="-14.3" font-family="Times,serif" font-size="14.00">report</text>
</a>
</g>
</g>
<!-- n19 -->
<g id="node19" class="node">
<title>n19</title>
<g id="a_node19"><a xlink:href="https://neuroquery.github.io/nqdc/results_analysis" xlink:title="results_analysis">
<polygon fill="#9fb1fc" stroke="#0000ff" points="179.24,-119 48.24,-119 48.24,-83 179.24,-83 179.24,-119"/>
<text text-anchor="middle" x="113.74" y="-97.3" font-family="Times,serif" font-size="14.00">results_analysis</text>
</a>
</g>
</g>
<!-- n8&#45;&gt;n19 -->
<g id="edge12" class="edge">
<title>n8&#45;&gt;n19</title>
<path fill="none" stroke="darkgreen" d="M113.74,-36.18C113.74,-46.81 113.74,-60.69 113.74,-72.8"/>
<polygon fill="darkgreen" stroke="darkgreen" points="110.24,-72.85 113.74,-82.85 117.24,-72.85 110.24,-72.85"/>
<text text-anchor="middle" x="157.74" y="-57" font-family="Times,serif" font-size="10.00" fill="darkgreen">wasGeneratedBy</text>
</g>
<!-- n9 -->
<g id="node9" class="node">
<title>n9</title>
<g id="a_node9"><a xlink:href="https://neuroquery.github.io/nqdc/nqdc" xlink:title="nqdc">
<polygon fill="#fed37f" stroke="black" points="438.68,-853.56 397.74,-866 356.8,-853.56 356.83,-833.44 438.65,-833.44 438.68,-853.56"/>
<text text-anchor="middle" x="397.74" y="-844.3" font-family="Times,serif" font-size="14.00">nqdc</text>
</a>
</g>
</g>
<!-- n10 -->
<g id="node10" class="node">
<title>n10</title>
<g id="a_node10"><a xlink:href="https://neuroquery.github.io/nqdc/labelbuddy" xlink:title="labelbuddy">
<polygon fill="#fed37f" stroke="black" points="588.88,-687.56 512.74,-700 436.6,-687.56 436.67,-667.44 588.81,-667.44 588.88,-687.56"/>
<text text-anchor="middle" x="512.74" y="-678.3" font-family="Times,serif" font-size="14.00">labelbuddy</text>
</a>
</g>
</g>
<!-- n11 -->
<g id="node11" class="node">
<title>n11</title>
<g id="a_node11"><a xlink:href="https://neuroquery.github.io/nqdc/information_extractor" xlink:title="information_extractor">
<polygon fill="#fed37f" stroke="black" points="430.71,-355.56 291.74,-368 152.77,-355.56 152.9,-335.44 430.58,-335.44 430.71,-355.56"/>
<text text-anchor="middle" x="291.74" y="-346.3" font-family="Times,serif" font-size="14.00">information_extractor</text>
</a>
</g>
</g>
<!-- n15 -->
<g id="node15" class="node">
<title>n15</title>
<g id="a_node15"><a xlink:href="https://neuroquery.github.io/nqdc/information_extractor_design" xlink:title="information_extractor_design">
<polygon fill="#9fb1fc" stroke="#0000ff" points="405.24,-451 178.24,-451 178.24,-415 405.24,-415 405.24,-451"/>
<text text-anchor="middle" x="291.74" y="-429.3" font-family="Times,serif" font-size="14.00">information_extractor_design</text>
</a>
</g>
</g>
<!-- n11&#45;&gt;n15 -->
<g id="edge20" class="edge">
<title>n11&#45;&gt;n15</title>
<path fill="none" stroke="darkgreen" d="M291.74,-368.18C291.74,-378.81 291.74,-392.69 291.74,-404.8"/>
<polygon fill="darkgreen" stroke="darkgreen" points="288.24,-404.85 291.74,-414.85 295.24,-404.85 288.24,-404.85"/>
<text text-anchor="middle" x="335.74" y="-389" font-family="Times,serif" font-size="10.00" fill="darkgreen">wasGeneratedBy</text>
</g>
<!-- n12 -->
<g id="node12" class="node">
<title>n12</title>
<g id="a_node12"><a xlink:href="https://neuroquery.github.io/nqdc/nqdc_plugin" xlink:title="nqdc_plugin">
<polygon fill="#fed37f" stroke="black" points="449.74,-189.56 366.74,-202 283.74,-189.56 283.82,-169.44 449.66,-169.44 449.74,-189.56"/>
<text text-anchor="middle" x="366.74" y="-180.3" font-family="Times,serif" font-size="14.00">nqdc_plugin</text>
</a>
</g>
</g>
<!-- n12&#45;&gt;n11 -->
<g id="edge22" class="edge">
<title>n12&#45;&gt;n11</title>
<path fill="none" stroke="black" d="M329.08,-196.39C304.29,-206.07 273.74,-222.68 258.74,-249 244.48,-274.02 260.26,-306.1 274.51,-327.09"/>
<polygon fill="black" stroke="black" points="271.76,-329.26 280.43,-335.35 277.45,-325.19 271.76,-329.26"/>
<text text-anchor="middle" x="290.74" y="-264.5" font-family="Times,serif" font-size="10.00">hadMember</text>
</g>
<!-- n20 -->
<g id="node20" class="node">
<title>n20</title>
<g id="a_node20"><a xlink:href="https://neuroquery.github.io/nqdc/extractor_packaging" xlink:title="extractor_packaging">
<polygon fill="#9fb1fc" stroke="#0000ff" points="493.74,-285 331.74,-285 331.74,-249 493.74,-249 493.74,-285"/>
<text text-anchor="middle" x="412.74" y="-263.3" font-family="Times,serif" font-size="14.00">extractor_packaging</text>
</a>
</g>
</g>
<!-- n12&#45;&gt;n20 -->
<g id="edge14" class="edge">
<title>n12&#45;&gt;n20</title>
<path fill="none" stroke="darkgreen" d="M375.83,-201C382.15,-212.13 390.71,-227.22 398,-240.05"/>
<polygon fill="darkgreen" stroke="darkgreen" points="395.05,-241.94 403.04,-248.91 401.14,-238.49 395.05,-241.94"/>
<text text-anchor="middle" x="435.74" y="-223" font-family="Times,serif" font-size="10.00" fill="darkgreen">wasGeneratedBy</text>
</g>
<!-- n13&#45;&gt;n1 -->
<g id="edge9" class="edge">
<title>n13&#45;&gt;n1</title>
<path fill="none" stroke="#8b0000" d="M308.26,-783.18C297.93,-794.64 284.2,-809.88 272.74,-822.59"/>
<polygon fill="#8b0000" stroke="#8b0000" points="270.04,-820.35 265.95,-830.12 275.24,-825.04 270.04,-820.35"/>
<text text-anchor="middle" x="303.24" y="-804" font-family="Times,serif" font-size="10.00" fill="red">used</text>
</g>
<!-- n13&#45;&gt;n9 -->
<g id="edge18" class="edge">
<title>n13&#45;&gt;n9</title>
<path fill="none" stroke="#fed37f" d="M339.43,-783.18C350.75,-795.56 366.09,-812.36 378.2,-825.61"/>
<polygon fill="#fed37f" stroke="#fed37f" points="375.93,-828.31 385.25,-833.33 381.09,-823.59 375.93,-828.31"/>
<text text-anchor="middle" x="414.24" y="-804" font-family="Times,serif" font-size="10.00">wasAssociatedWith</text>
</g>
<!-- n14&#45;&gt;n2 -->
<g id="edge7" class="edge">
<title>n14&#45;&gt;n2</title>
<path fill="none" stroke="#8b0000" d="M333.72,-617.18C330.1,-622.57 326.68,-628.75 324.74,-635 322.92,-640.86 322.1,-647.35 321.84,-653.57"/>
<polygon fill="#8b0000" stroke="#8b0000" points="318.34,-653.61 321.88,-663.6 325.34,-653.59 318.34,-653.61"/>
<text text-anchor="middle" x="337.24" y="-638" font-family="Times,serif" font-size="10.00" fill="red">used</text>
</g>
<!-- n14&#45;&gt;n10 -->
<g id="edge6" class="edge">
<title>n14&#45;&gt;n10</title>
<path fill="none" stroke="#fed37f" d="M372.03,-617.02C385.9,-626.3 403.85,-637.57 420.74,-646 433.78,-652.51 448.35,-658.57 461.97,-663.75"/>
<polygon fill="#fed37f" stroke="#fed37f" points="461.1,-667.16 471.69,-667.36 463.54,-660.6 461.1,-667.16"/>
<text text-anchor="middle" x="470.24" y="-638" font-family="Times,serif" font-size="10.00">wasAssociatedWith</text>
</g>
<!-- n15&#45;&gt;n3 -->
<g id="edge11" class="edge">
<title>n15&#45;&gt;n3</title>
<path fill="none" stroke="#8b0000" d="M318.89,-451.18C339.43,-464.18 367.67,-482.05 389.04,-495.57"/>
<polygon fill="#8b0000" stroke="#8b0000" points="387.41,-498.69 397.74,-501.08 391.16,-492.77 387.41,-498.69"/>
<text text-anchor="middle" x="375.24" y="-472" font-family="Times,serif" font-size="10.00" fill="red">used</text>
</g>
<!-- n15&#45;&gt;n4 -->
<g id="edge21" class="edge">
<title>n15&#45;&gt;n4</title>
<path fill="none" stroke="#8b0000" d="M283.89,-451.18C278.94,-462.02 272.44,-476.26 266.83,-488.53"/>
<polygon fill="#8b0000" stroke="#8b0000" points="263.55,-487.3 262.58,-497.85 269.91,-490.21 263.55,-487.3"/>
<text text-anchor="middle" x="287.24" y="-472" font-family="Times,serif" font-size="10.00" fill="red">used</text>
</g>
<!-- n16&#45;&gt;n2 -->
<g id="edge1" class="edge">
<title>n16&#45;&gt;n2</title>
<path fill="none" stroke="#8b0000" d="M505.22,-451.08C499.31,-473.92 488.99,-515.76 482.74,-552 475.59,-593.45 499.71,-614.59 471.74,-646 466,-652.44 427.54,-661.43 391.27,-668.69"/>
<polygon fill="#8b0000" stroke="#8b0000" points="390.26,-665.32 381.12,-670.68 391.61,-672.19 390.26,-665.32"/>
<text text-anchor="middle" x="495.24" y="-555" font-family="Times,serif" font-size="10.00" fill="red">used</text>
</g>
<!-- n16&#45;&gt;n3 -->
<g id="edge23" class="edge">
<title>n16&#45;&gt;n3</title>
<path fill="none" stroke="#8b0000" d="M471.18,-451.15C462.52,-456.12 453.81,-462.09 446.74,-469 440.91,-474.69 435.9,-481.91 431.83,-488.93"/>
<polygon fill="#8b0000" stroke="#8b0000" points="428.5,-487.74 426.88,-498.21 434.67,-491.03 428.5,-487.74"/>
<text text-anchor="middle" x="459.24" y="-472" font-family="Times,serif" font-size="10.00" fill="red">used</text>
</g>
<!-- n16&#45;&gt;n10 -->
<g id="edge2" class="edge">
<title>n16&#45;&gt;n10</title>
<path fill="none" stroke="#fed37f" d="M510.08,-451.2C510.53,-474.17 511.3,-516.15 511.74,-552 512.19,-588.64 512.48,-631.14 512.62,-657.05"/>
<polygon fill="#fed37f" stroke="#fed37f" points="509.12,-657.08 512.67,-667.06 516.12,-657.05 509.12,-657.08"/>
<text text-anchor="middle" x="561.24" y="-555" font-family="Times,serif" font-size="10.00">wasAssociatedWith</text>
</g>
<!-- n17&#45;&gt;n5 -->
<g id="edge25" class="edge">
<title>n17&#45;&gt;n5</title>
<path fill="none" stroke="#8b0000" d="M588.23,-285.18C584.78,-295.92 580.27,-309.97 576.35,-322.16"/>
<polygon fill="#8b0000" stroke="#8b0000" points="572.97,-321.26 573.25,-331.85 579.63,-323.39 572.97,-321.26"/>
<text text-anchor="middle" x="594.24" y="-306" font-family="Times,serif" font-size="10.00" fill="red">used</text>
</g>
<!-- n17&#45;&gt;n11 -->
<g id="edge4" class="edge">
<title>n17&#45;&gt;n11</title>
<path fill="none" stroke="#8b0000" d="M530.06,-285.08C477.55,-299.16 403.57,-319.01 352.02,-332.83"/>
<polygon fill="#8b0000" stroke="#8b0000" points="351.09,-329.46 342.34,-335.43 352.9,-336.22 351.09,-329.46"/>
<text text-anchor="middle" x="473.24" y="-306" font-family="Times,serif" font-size="10.00" fill="red">used</text>
</g>
<!-- n18&#45;&gt;n2 -->
<g id="edge8" class="edge">
<title>n18&#45;&gt;n2</title>
<path fill="none" stroke="#8b0000" d="M110.02,-285.29C106.82,-301.63 102.74,-326.86 102.74,-349 102.74,-349 102.74,-349 102.74,-600 102.74,-632.78 189.52,-656.28 254.32,-669.26"/>
<polygon fill="#8b0000" stroke="#8b0000" points="254.03,-672.77 264.52,-671.26 255.37,-665.9 254.03,-672.77"/>
<text text-anchor="middle" x="115.24" y="-472" font-family="Times,serif" font-size="10.00" fill="red">used</text>
</g>
<!-- n18&#45;&gt;n11 -->
<g id="edge10" class="edge">
<title>n18&#45;&gt;n11</title>
<path fill="none" stroke="#fed37f" d="M118.33,-285.26C121.81,-295.09 127.6,-306.84 136.74,-314 145.99,-321.24 156.44,-327.05 167.46,-331.69"/>
<polygon fill="#fed37f" stroke="#fed37f" points="166.23,-334.97 176.82,-335.32 168.76,-328.44 166.23,-334.97"/>
<text text-anchor="middle" x="186.24" y="-306" font-family="Times,serif" font-size="10.00">wasAssociatedWith</text>
</g>
<!-- n19&#45;&gt;n7 -->
<g id="edge5" class="edge">
<title>n19&#45;&gt;n7</title>
<path fill="none" stroke="#8b0000" d="M113.74,-119.18C113.74,-129.81 113.74,-143.69 113.74,-155.8"/>
<polygon fill="#8b0000" stroke="#8b0000" points="110.24,-155.85 113.74,-165.85 117.24,-155.85 110.24,-155.85"/>
<text text-anchor="middle" x="126.24" y="-140" font-family="Times,serif" font-size="10.00" fill="red">used</text>
</g>
<!-- n20&#45;&gt;n11 -->
<g id="edge24" class="edge">
<title>n20&#45;&gt;n11</title>
<path fill="none" stroke="#8b0000" d="M387.08,-285.18C367.62,-298.2 340.87,-316.11 320.65,-329.64"/>
<polygon fill="#8b0000" stroke="#8b0000" points="318.52,-326.86 312.15,-335.33 322.41,-332.68 318.52,-326.86"/>
<text text-anchor="middle" x="371.24" y="-306" font-family="Times,serif" font-size="10.00" fill="red">used</text>
</g>
</g>
</svg>
